<?xml version="1.0" standalone="no"?>
<!DOCTYPE svg PUBLIC "-//W3C//DTD SVG 20010904//EN"
 "http://www.w3.org/TR/2001/REC-SVG-20010904/DTD/svg10.dtd">
<svg version="1.0" xmlns="http://www.w3.org/2000/svg"
 width="643.000000pt" height="1280.000000pt" viewBox="0 0 643.000000 1280.000000"
 preserveAspectRatio="xMidYMid meet">
<metadata>
Created by potrace 1.15, written by Peter Selinger 2001-2017
</metadata>
<g transform="translate(0.000000,1280.000000) scale(0.100000,-0.100000)"
fill="#000000" stroke="none">
<path d="M3830 12786 c-58 -7 -118 -17 -135 -21 -53 -13 -165 -77 -214 -121
-145 -130 -233 -399 -295 -904 -41 -322 -54 -412 -68 -460 l-14 -45 -119 -3
c-66 -2 -181 -4 -255 -5 -126 -2 -139 -4 -197 -31 -73 -33 -154 -113 -183
-180 -33 -78 -70 -206 -100 -346 -16 -74 -45 -201 -64 -281 -47 -198 -63 -289
-81 -459 -29 -272 -61 -416 -124 -558 -49 -108 -152 -375 -174 -452 -9 -30
-23 -96 -31 -145 -8 -50 -24 -137 -35 -195 -11 -58 -25 -143 -31 -190 -23
-172 -71 -446 -87 -495 -9 -27 -27 -72 -40 -100 -12 -27 -23 -64 -23 -81 0
-34 -16 -44 -73 -44 -34 0 -67 -16 -67 -32 0 -7 -13 -26 -29 -43 -63 -66 -81
-217 -37 -310 44 -94 95 -164 124 -171 15 -3 32 -7 38 -9 13 -4 24 -187 24
-418 0 -148 -2 -173 -17 -190 -15 -16 -18 -37 -16 -139 1 -109 4 -123 26 -156
30 -44 36 -107 38 -362 1 -170 0 -175 -20 -178 -13 -2 -21 -11 -21 -22 0 -10
-5 -22 -11 -26 -6 -3 -8 -16 -5 -28 10 -39 50 -1291 42 -1305 -2 -3 -32 -4
-67 -1 l-62 5 -17 62 c-28 104 -71 148 -142 147 -72 -2 -119 -55 -139 -155
-13 -66 -20 -69 -140 -69 -154 0 -488 -37 -609 -67 -133 -33 -198 -72 -248
-150 -106 -166 -139 -502 -128 -1318 5 -427 24 -1124 41 -1505 17 -375 49
-507 164 -659 23 -30 41 -59 41 -64 0 -5 11 -22 25 -39 14 -16 25 -37 25 -47
0 -10 9 -26 19 -35 10 -9 22 -38 26 -64 9 -59 36 -113 84 -165 21 -23 48 -61
60 -84 11 -23 31 -49 43 -57 43 -31 249 -14 276 22 23 30 11 132 -21 181 l-28
41 27 34 27 33 296 6 c163 2 304 8 313 12 20 8 23 2 33 -59 5 -29 21 -54 61
-96 52 -55 54 -59 54 -113 l0 -57 48 -1 c75 -1 146 2 164 7 24 7 61 90 66 149
5 56 -17 113 -57 149 -25 23 -27 36 -6 36 18 0 35 39 35 77 0 16 15 42 41 70
175 190 215 646 163 1848 -36 842 -78 1387 -125 1620 -24 119 -48 178 -93 225
l-33 35 -12 430 c-14 492 -27 816 -41 1025 -6 80 -17 345 -25 590 -8 245 -18
525 -21 622 -6 152 -5 179 8 192 9 8 19 43 23 76 7 60 8 61 87 134 92 86 107
117 108 222 0 80 21 214 50 319 19 70 224 571 241 590 6 6 7 -4 3 -25 -11 -64
-26 -104 -65 -175 -53 -98 -102 -306 -134 -575 -9 -74 -26 -180 -37 -235 -32
-155 -33 -173 -12 -197 39 -42 182 -98 291 -113 56 -7 70 -17 56 -37 -9 -14
-14 -71 -14 -158 0 -30 -4 -106 -9 -168 -15 -187 6 -515 44 -682 8 -36 33
-144 55 -240 34 -149 63 -264 111 -440 31 -114 88 -278 126 -364 24 -54 44
-107 44 -118 0 -11 11 -38 24 -61 20 -36 25 -61 30 -165 8 -147 47 -457 76
-597 25 -121 49 -198 106 -332 24 -57 44 -112 44 -124 0 -11 7 -33 15 -47 8
-15 31 -81 51 -147 34 -113 125 -350 251 -655 97 -234 96 -231 90 -355 -10
-203 -55 -367 -175 -630 -27 -60 -73 -182 -103 -270 -29 -88 -60 -178 -70
-200 -48 -115 -134 -431 -159 -588 -10 -61 -10 -103 -1 -195 13 -127 36 -251
49 -264 5 -5 128 -18 275 -30 287 -23 288 -23 307 28 5 12 14 145 20 295 14
346 18 380 69 629 37 178 42 215 36 281 -10 117 30 439 54 439 12 0 46 -82 71
-170 38 -134 42 -145 61 -182 27 -53 44 -261 30 -372 -13 -109 -65 -345 -93
-419 -18 -50 -20 -71 -15 -150 17 -254 29 -377 43 -426 8 -29 14 -63 12 -75
-5 -42 7 -46 130 -46 127 1 233 11 299 29 40 11 42 14 52 64 6 28 18 122 26
207 9 85 21 182 27 215 6 33 10 114 9 179 -1 141 43 402 80 482 31 65 38 193
15 249 -9 21 -46 84 -82 141 -50 78 -76 109 -108 128 -76 45 -116 143 -176
441 -58 287 -76 508 -45 549 8 11 15 28 15 38 0 11 8 33 17 51 9 18 20 50 24
72 11 60 35 146 67 232 64 173 104 323 127 477 17 118 33 426 27 524 -3 45 1
69 11 86 9 13 24 50 34 82 16 51 17 85 13 259 -9 383 -8 410 22 520 15 55 39
154 54 220 28 129 111 480 144 610 12 43 27 87 35 95 8 9 15 25 15 36 0 10 19
66 41 124 23 58 50 137 60 175 9 39 24 97 33 130 24 96 36 280 36 551 l0 252
49 32 c59 37 118 100 126 133 6 22 -56 191 -106 288 -17 34 -18 45 -8 72 11
31 9 35 -20 67 -17 19 -31 38 -31 43 0 13 -61 98 -104 145 -21 23 -37 45 -34
47 6 6 178 18 488 35 353 19 497 43 785 130 72 21 173 48 225 60 236 55 243
57 279 96 l34 37 -6 106 c-8 165 -45 240 -252 507 -210 271 -241 307 -482 554
-131 135 -260 270 -287 300 -27 30 -151 160 -275 288 -123 129 -235 253 -247
276 -27 51 -51 133 -59 206 -3 30 -12 102 -20 160 -8 58 -21 206 -30 330 -8
124 -20 261 -25 305 -5 44 -19 157 -31 250 -45 375 -120 616 -242 781 -83 112
-192 182 -344 220 -129 32 -178 35 -303 20z m1430 -3567 c253 -253 460 -462
460 -465 0 -10 -251 -99 -440 -155 -102 -31 -556 -109 -630 -109 -61 0 -72 4
-127 39 -74 48 -91 81 -42 81 19 0 37 82 48 225 5 69 9 81 29 91 12 6 25 14
28 17 14 13 24 97 34 267 6 100 15 203 21 228 5 25 14 80 19 121 10 78 27 107
64 114 71 14 50 32 536 -454z"/>
</g>
</svg>
